<svg width="35.978783" height="35.978760" viewBox="0 0 35.9788 35.9788" fill="none" xmlns="http://www.w3.org/2000/svg" xmlns:xlink="http://www.w3.org/1999/xlink">
	<desc>
			Created with Pixso.
	</desc>
	<defs/>
	<path id="Vector" d="M19.78 28.78C21.77 28.78 23.38 30.39 23.38 32.38C23.38 34.36 21.77 35.97 19.78 35.97C17.8 35.97 16.19 34.36 16.19 32.38C16.19 30.39 17.8 28.78 19.78 28.78ZM8.52 23.38C11.01 23.38 13.02 25.39 13.02 27.88C13.02 30.36 11.01 32.38 8.52 32.38C6.04 32.38 4.03 30.36 4.03 27.88C4.03 25.39 6.04 23.38 8.52 23.38ZM29.35 24.28C31.34 24.28 32.95 25.89 32.95 27.88C32.95 29.87 31.34 31.48 29.35 31.48C27.37 31.48 25.75 29.87 25.75 27.88C25.75 25.89 27.37 24.28 29.35 24.28ZM33.28 16.76C34.77 16.76 35.97 17.97 35.97 19.46C35.97 20.95 34.77 22.16 33.28 22.16C31.79 22.16 30.58 20.95 30.58 19.46C30.58 17.97 31.79 16.76 33.28 16.76ZM4.49 10.79C6.98 10.79 8.99 12.8 8.99 15.29C8.99 17.77 6.98 19.78 4.49 19.78C2.01 19.78 0 17.77 0 15.29C0 12.8 2.01 10.79 4.49 10.79ZM31.99 9.36C32.98 9.36 33.79 10.17 33.79 11.16C33.79 12.16 32.98 12.96 31.99 12.96C31 12.96 30.19 12.16 30.19 11.16C30.19 10.17 31 9.36 31.99 9.36ZM14.39 0C17.37 0 19.78 2.41 19.78 5.39C19.78 8.37 17.37 10.79 14.39 10.79C11.41 10.79 8.99 8.37 8.99 5.39C8.99 2.41 11.41 0 14.39 0ZM27.88 5.39C28.38 5.39 28.78 5.79 28.78 6.29C28.78 6.79 28.38 7.19 27.88 7.19C27.38 7.19 26.98 6.79 26.98 6.29C26.98 5.79 27.38 5.39 27.88 5.39Z" fill="#096FFA" fill-opacity="1.000000" fill-rule="evenodd"/>
</svg>
